<svg version="1.1" xmlns="http://www.w3.org/2000/svg" x="0px" y="0px" viewBox="0 0 370 260">
    <path fill="none" stroke="#F5F7FA" stroke-width="3" d="M105.3,103.3V81.4c0-5.2,4.3-9.5,9.5-9.5h216.5 M34.5,213.5h-20c-5.3,0-9.5-4.3-9.5-9.5V14.5C5,9.3,9.3,5,14.5,5h316.8c5.3,0,9.5,4.3,9.5,9.5v36.1v9.5c0,2.7,0.9,5.1,2.4,7.1c2.2,2.9,5.6,4.7,9.5,4.7h2.7c5.3,0,9.5,4.3,9.5,9.5v137.4c0,5.2-4.3,9.5-9.5,9.5H160.8h-9.5c-2.7,0-5.2,0.9-7.1,2.4c-2.9,2.1-4.8,5.6-4.8,9.4v5.3c0,5.2-4.3,9.5-9.5,9.5H58.3c-5.2,0-9.5-4.3-9.5-9.5V112.8c0-5.2,4.3-9.5,9.5-9.5h71.5c5.3,0,9.5,4.2,9.5,9.5v106"/>
</svg>
