<svg version="1.1" xmlns="http://www.w3.org/2000/svg" x="0px" y="0px" viewBox="0 0 370 260">
    <path id="small" fill="none" stroke="#F5F7FA" stroke-width="3" d="M331.3,71.9H114.8c-5.2,0-9.5,4.3-9.5,9.5v21.9">
    <path id="large" fill="none" stroke="#F5F7FA" stroke-width="3" d="M139.3,218.8v-106c0-5.3-4.2-9.5-9.5-9.5H58.3c-5.2,0-9.5,4.3-9.5,9.5v132.6c0,5.2,4.3,9.5,9.5,9.5h71.6c5.2,0,9.5-4.3,9.5-9.5v-5.3c0-3.8,1.9-7.3,4.8-9.4c1.9-1.5,4.4-2.4,7.1-2.4h9.5h194.6c5.2,0,9.5-4.3,9.5-9.5V81.4c0-5.2-4.2-9.5-9.5-9.5h-2.7c-3.9,0-7.3-1.8-9.5-4.7c-1.5-2-2.4-4.4-2.4-7.1v-9.5V14.5c0-5.2-4.2-9.5-9.5-9.5H14.5C9.3,5,5,9.3,5,14.5V204c0,5.2,4.2,9.5,9.5,9.5h20">
</svg>
