<?xml version="1.0" standalone="no"?>
<!DOCTYPE svg PUBLIC "-//W3C//DTD SVG 20010904//EN"
 "http://www.w3.org/TR/2001/REC-SVG-20010904/DTD/svg10.dtd">
<svg version="1.0" xmlns="http://www.w3.org/2000/svg"
 width="740.000000pt" height="740.000000pt" viewBox="0 0 740.000000 740.000000"
 preserveAspectRatio="xMidYMid meet">
<metadata>
Created by potrace 1.11, written by Peter Selinger 2001-2013
</metadata>
<g transform="translate(0.000000,740.000000) scale(0.100000,-0.100000)"
fill="#000000" stroke="none">
<path d="M217 6216 c-62 -23 -114 -75 -134 -135 -17 -52 -18 -3883 -1 -3932
24 -70 93 -130 163 -144 26 -5 207 -7 388 -6 57 1 57 1 57 31 l0 30 -202 1
c-112 1 -215 2 -231 3 -38 4 -98 55 -113 97 -10 27 -13 446 -13 1954 0 1850 0
1922 18 1961 10 23 34 52 52 65 l34 24 3200 3 c2197 2 3211 0 3236 -8 40 -11
86 -52 102 -90 6 -16 11 -206 11 -526 2 -473 3 -504 21 -545 47 -106 133 -161
256 -166 121 -5 177 -38 197 -118 14 -55 14 -2775 0 -2830 -11 -45 -39 -79
-83 -103 -27 -15 -219 -16 -2120 -17 l-2090 -1 -55 -28 c-64 -32 -119 -96
-138 -158 -7 -24 -14 -86 -15 -138 -4 -109 -17 -141 -75 -180 l-36 -25 -750
-2 c-806 -1 -788 -2 -843 49 -12 11 -28 37 -34 57 -9 27 -13 362 -13 1361 -1
729 2 1344 6 1367 9 54 41 97 87 119 33 16 99 18 765 18 754 1 794 -1 837 -40
56 -51 53 14 54 -1159 l0 -1080 30 0 30 0 0 1085 0 1085 -25 49 c-24 48 -79
95 -130 111 -14 5 -135 10 -270 11 -135 1 -247 2 -250 3 -3 0 -5 99 -4 219 1
207 2 220 23 259 13 22 37 48 54 59 31 19 89 19 2221 24 l2189 5 4 28 c3 24 0
27 -24 28 -15 0 -1000 1 -2188 1 -2364 0 -2190 5 -2264 -58 -67 -56 -75 -92
-77 -339 -1 -121 -2 -222 -3 -225 0 -3 -216 -5 -478 -6 -471 0 -479 0 -518
-22 -75 -41 -107 -80 -122 -152 -5 -26 -8 -605 -8 -1395 1 -1212 3 -1354 17
-1387 22 -50 66 -94 119 -117 43 -20 68 -20 794 -21 849 0 814 -3 884 77 47
53 58 89 60 203 3 138 39 200 140 240 29 12 391 14 2115 15 l2081 0 47 22 c45
21 104 86 117 130 11 36 10 2839 0 2877 -16 56 -70 118 -125 141 -17 7 -66 15
-110 18 -135 8 -211 61 -230 161 -4 22 -7 260 -8 530 l-1 491 -30 45 c-17 24
-50 58 -73 75 l-44 30 -3221 2 c-2700 2 -3228 0 -3260 -11z"/>
</g>
</svg>
